nColumns=28
nRows=60
DataType=double
version=3
OpenSimVersion=4.1
endheader
time	ground_force_1_vx	ground_force_1_vy	ground_force_1_vz	ground_force_1_px	ground_force_1_py	ground_force_1_pz	ground_force_1_mx	ground_force_1_my	ground_force_1_mz	ground_force_2_vx	ground_force_2_vy	ground_force_2_vz	ground_force_2_px	ground_force_2_py	ground_force_2_pz	ground_force_2_mx	ground_force_2_my	ground_force_2_mz	ground_force_3_vx	ground_force_3_vy	ground_force_3_vz	ground_force_3_px	ground_force_3_py	ground_force_3_pz	ground_force_3_mx	ground_force_3_my	ground_force_3_mz
6.6	0.444165	410.596	-19.8946	-0.205641	0.006	-0.40597	0	-6.73403	0	-7.4286	323.052	21.2456	-0.201482	0.006	-0.763555	0	8.87242	0	0	0	0	0	0	0	0	0	0
6.61	-0.311643	411.878	-19.528	-0.20527	0.006	-0.405883	0	-6.95221	0	-6.85589	323.8	20.0887	-0.201325	0.006	-0.763316	0	8.99957	0	0	0	0	0	0	0	0	0	0
6.62	-1.03892	413.166	-19.1429	-0.204935	0.006	-0.405793	0	-7.17909	0	-6.3435	324.524	18.9391	-0.201198	0.006	-0.763088	0	9.12621	0	0	0	0	0	0	0	0	0	0
6.63	-1.72916	414.433	-18.7328	-0.204641	0.006	-0.405706	0	-7.41171	0	-5.90215	325.184	17.8221	-0.201091	0.006	-0.762877	0	9.25093	0	0	0	0	0	0	0	0	0	0
6.64	-2.38172	415.636	-18.2902	-0.204386	0.006	-0.405626	0	-7.64671	0	-5.53761	325.737	16.76	-0.200995	0.006	-0.762687	0	9.37197	0	0	0	0	0	0	0	0	0	0
6.65	-3.00328	416.718	-17.807	-0.204169	0.006	-0.405559	0	-7.88029	0	-5.25004	326.132	15.7693	-0.200907	0.006	-0.762521	0	9.48732	0	0	0	0	0	0	0	0	0	0
6.66	-3.60515	417.614	-17.277	-0.203986	0.006	-0.405508	0	-8.10829	0	-5.03463	326.318	14.8597	-0.200825	0.006	-0.762379	0	9.59467	0	0	0	0	0	0	0	0	0	0
6.67	-4.19869	418.258	-16.6959	-0.203834	0.006	-0.405476	0	-8.32626	0	-4.88253	326.239	14.0337	-0.200748	0.006	-0.762261	0	9.69144	0	0	0	0	0	0	0	0	0	0
6.68	-4.7915	418.595	-16.0626	-0.203708	0.006	-0.405466	0	-8.52952	0	-4.78269	325.837	13.2873	-0.200678	0.006	-0.762162	0	9.77496	0	0	0	0	0	0	0	0	0	0
6.69	-5.3857	418.588	-15.379	-0.203606	0.006	-0.405481	0	-8.71347	0	-4.72391	325.056	12.6111	-0.200617	0.006	-0.76208	0	9.84252	0	0	0	0	0	0	0	0	0	0
6.7	-5.97847	418.217	-14.6486	-0.203527	0.006	-0.40552	0	-8.87387	0	-4.69617	323.843	11.991	-0.200568	0.006	-0.762006	0	9.89164	0	0	0	0	0	0	0	0	0	0
6.71	-6.56386	417.476	-13.8775	-0.203474	0.006	-0.405587	0	-9.00732	0	-4.69148	322.155	11.4098	-0.200531	0.006	-0.761936	0	9.92031	0	0	0	0	0	0	0	0	0	0
6.72	-7.13536	416.379	-13.0749	-0.203448	0.006	-0.405681	0	-9.11159	0	-4.70254	319.968	10.8496	-0.200511	0.006	-0.761861	0	9.92719	0	0	0	0	0	0	0	0	0	0
6.73	-7.68763	414.949	-12.2533	-0.203453	0.006	-0.405799	0	-9.18589	0	-4.72062	317.283	10.2929	-0.200511	0.006	-0.761774	0	9.91167	0	0	0	0	0	0	0	0	0	0
6.74	-8.21709	413.22	-11.4279	-0.203493	0.006	-0.40594	0	-9.23097	0	-4.73369	314.134	9.72397	-0.20054	0.006	-0.761668	0	9.87396	0	0	0	0	0	0	0	0	0	0
6.75	-8.72188	411.232	-10.6148	-0.203573	0.006	-0.406099	0	-9.24901	0	-4.72616	310.585	9.13	-0.200611	0.006	-0.761536	0	9.81502	0	0	0	0	0	0	0	0	0	0
6.76	-9.20148	409.032	-9.83026	-0.203697	0.006	-0.406271	0	-9.24331	0	-4.68139	306.721	8.50293	-0.200736	0.006	-0.761375	0	9.73636	0	0	0	0	0	0	0	0	0	0
6.77	-9.65508	406.67	-9.09199	-0.20387	0.006	-0.406451	0	-9.21776	0	-4.58461	302.64	7.8399	-0.20093	0.006	-0.76118	0	9.63987	0	0	0	0	0	0	0	0	0	0
6.78	-10.08	404.204	-8.41848	-0.204096	0.006	-0.406632	0	-9.17632	0	-4.42479	298.439	7.14274	-0.201205	0.006	-0.760948	0	9.5278	0	0	0	0	0	0	0	0	0	0
6.79	-10.4711	401.688	-7.8274	-0.20438	0.006	-0.406809	0	-9.12271	0	-4.19515	294.214	6.41725	-0.201572	0.006	-0.76068	0	9.40277	0	0	0	0	0	0	0	0	0	0
6.8	-10.821	399.181	-7.33328	-0.204725	0.006	-0.406975	0	-9.06043	0	-3.89344	290.05	5.67178	-0.20204	0.006	-0.760374	0	9.26754	0	0	0	0	0	0	0	0	0	0
6.81	-11.1215	396.737	-6.9463	-0.205134	0.006	-0.407126	0	-8.99255	0	-3.52163	286.02	4.91602	-0.20261	0.006	-0.760035	0	9.12488	0	0	0	0	0	0	0	0	0	0
6.82	-11.3663	394.408	-6.67218	-0.20561	0.006	-0.407258	0	-8.92162	0	-3.08443	282.182	4.16085	-0.203284	0.006	-0.759664	0	8.97751	0	0	0	0	0	0	0	0	0	0
6.83	-11.5514	392.246	-6.51262	-0.206153	0.006	-0.407369	0	-8.84959	0	-2.58756	278.58	3.41838	-0.20406	0.006	-0.759265	0	8.828	0	0	0	0	0	0	0	0	0	0
6.84	-11.675	390.3	-6.46544	-0.206764	0.006	-0.40746	0	-8.77804	0	-2.03683	275.239	2.70106	-0.204934	0.006	-0.758843	0	8.67852	0	0	0	0	0	0	0	0	0	0
6.85	-11.7364	388.616	-6.5248	-0.207442	0.006	-0.407532	0	-8.70824	0	-1.4383	272.179	2.0212	-0.205899	0.006	-0.758401	0	8.53074	0	0	0	0	0	0	0	0	0	0
6.86	-11.7364	387.235	-6.68158	-0.208187	0.006	-0.407586	0	-8.64114	0	-0.799146	269.41	1.39132	-0.206947	0.006	-0.757948	0	8.38605	0	0	0	0	0	0	0	0	0	0
6.87	-11.6767	386.191	-6.92401	-0.208996	0.006	-0.407626	0	-8.57738	0	-0.128235	266.945	0.824183	-0.208066	0.006	-0.757492	0	8.2456	0	0	0	0	0	0	0	0	0	0
6.88	-11.5604	385.507	-7.2385	-0.209866	0.006	-0.407655	0	-8.51726	0	0.564208	264.795	0.332808	-0.209245	0.006	-0.75704	0	8.11026	0	0	0	0	0	0	0	0	0	0
6.89	-11.3906	385.195	-7.61102	-0.210791	0.006	-0.407679	0	-8.46081	0	1.26751	262.97	-0.0694547	-0.210469	0.006	-0.756603	0	7.98053	0	0	0	0	0	0	0	0	0	0
6.9	-11.1701	385.256	-8.02866	-0.211766	0.006	-0.407701	0	-8.4078	0	1.97064	261.479	-0.368769	-0.211726	0.006	-0.756189	0	7.85646	0	0	0	0	0	0	0	0	0	0
6.91	-10.9015	385.682	-8.48155	-0.212784	0.006	-0.407725	0	-8.35763	0	2.66195	260.334	-0.550054	-0.213005	0.006	-0.755806	0	7.73777	0	0	0	0	0	0	0	0	0	0
6.92	-10.5856	386.459	-8.96413	-0.213838	0.006	-0.407753	0	-8.30932	0	3.32974	259.552	-0.597533	-0.214296	0.006	-0.755463	0	7.62405	0	0	0	0	0	0	0	0	0	0
6.93	-10.2204	387.571	-9.47556	-0.214921	0.006	-0.407787	0	-8.2616	0	3.96273	259.159	-0.495406	-0.21559	0.006	-0.755168	0	7.51482	0	0	0	0	0	0	0	0	0	0
6.94	-9.80058	389.003	-10.0198	-0.216028	0.006	-0.407827	0	-8.21307	0	4.55045	259.185	-0.228485	-0.216879	0.006	-0.754927	0	7.40948	0	0	0	0	0	0	0	0	0	0
6.95	-9.31877	390.738	-10.6053	-0.217154	0.006	-0.407873	0	-8.16228	0	5.08458	259.664	0.217449	-0.218156	0.006	-0.754746	0	7.30717	0	0	0	0	0	0	0	0	0	0
6.96	-8.7662	392.764	-11.2447	-0.218292	0.006	-0.40792	0	-8.10783	0	5.56059	260.634	0.85567	-0.219415	0.006	-0.754626	0	7.20694	0	0	0	0	0	0	0	0	0	0
6.97	-8.13491	395.071	-11.9548	-0.21944	0.006	-0.407968	0	-8.04836	0	5.97719	262.129	1.69801	-0.220653	0.006	-0.754569	0	7.10776	0	0	0	0	0	0	0	0	0	0
6.98	-7.42018	397.644	-12.7552	-0.22059	0.006	-0.408011	0	-7.98247	0	6.33504	264.178	2.7537	-0.221866	0.006	-0.754574	0	7.00871	0	0	0	0	0	0	0	0	0	0
6.99	-6.62206	400.461	-13.6679	-0.221739	0.006	-0.408045	0	-7.90874	0	6.63615	266.798	4.02837	-0.223054	0.006	-0.754637	0	6.90884	0	0	0	0	0	0	0	0	0	0
7	-5.74578	403.487	-14.7153	-0.222881	0.006	-0.408066	0	-7.82566	0	6.88373	269.99	5.52357	-0.224216	0.006	-0.754753	0	6.8072	0	0	0	0	0	0	0	0	0	0
7.01	-4.80236	406.679	-15.9172	-0.22401	0.006	-0.40807	0	-7.73171	0	7.08215	273.734	7.23633	-0.225349	0.006	-0.754915	0	6.70268	0	0	0	0	0	0	0	0	0	0
7.02	-3.80976	409.977	-17.2896	-0.225119	0.006	-0.408052	0	-7.62551	0	7.23611	277.986	9.15882	-0.226452	0.006	-0.755114	0	6.5941	0	0	0	0	0	0	0	0	0	0
7.03	-2.79114	413.308	-18.8421	-0.226202	0.006	-0.408012	0	-7.50597	0	7.34997	282.675	11.2788	-0.227523	0.006	-0.755342	0	6.48019	0	0	0	0	0	0	0	0	0	0
7.04	-1.7717	416.599	-20.5764	-0.227254	0.006	-0.407947	0	-7.37232	0	7.42779	287.713	13.5801	-0.228559	0.006	-0.755592	0	6.35964	0	0	0	0	0	0	0	0	0	0
7.05	-0.775472	419.78	-22.4858	-0.228272	0.006	-0.407859	0	-7.22421	0	7.47389	292.999	16.0427	-0.229556	0.006	-0.755858	0	6.23132	0	0	0	0	0	0	0	0	0	0
7.06	0.17635	422.79	-24.5555	-0.229251	0.006	-0.40775	0	-7.06174	0	7.49299	298.428	18.643	-0.230513	0.006	-0.756135	0	6.09436	0	0	0	0	0	0	0	0	0	0
7.07	1.06468	425.577	-26.7623	-0.230193	0.006	-0.407622	0	-6.88537	0	7.48903	303.886	21.3531	-0.231429	0.006	-0.756418	0	5.94828	0	0	0	0	0	0	0	0	0	0
7.08	1.87136	428.092	-29.0761	-0.231096	0.006	-0.40748	0	-6.69592	0	7.46341	309.256	24.1402	-0.232302	0.006	-0.756704	0	5.79316	0	0	0	0	0	0	0	0	0	0
7.09	2.57875	430.288	-31.4607	-0.23196	0.006	-0.407328	0	-6.49448	0	7.41427	314.417	26.9659	-0.233133	0.006	-0.75699	0	5.62962	0	0	0	0	0	0	0	0	0	0
7.1	3.17112	432.116	-33.8755	-0.232789	0.006	-0.407171	0	-6.28244	0	7.33705	319.249	29.7859	-0.233925	0.006	-0.757274	0	5.45877	0	0	0	0	0	0	0	0	0	0
7.11	3.63669	433.532	-36.2785	-0.233584	0.006	-0.407015	0	-6.06158	0	7.22542	323.641	32.5529	-0.234683	0.006	-0.757553	0	5.28208	0	0	0	0	0	0	0	0	0	0
7.12	3.96839	434.496	-38.6277	-0.23435	0.006	-0.406864	0	-5.83392	0	7.0722	327.494	35.2204	-0.235412	0.006	-0.757827	0	5.10144	0	0	0	0	0	0	0	0	0	0
7.13	4.16486	434.978	-40.8817	-0.235093	0.006	-0.406723	0	-5.60187	0	6.87037	330.724	37.7473	-0.236118	0.006	-0.758095	0	4.91894	0	0	0	0	0	0	0	0	0	0
7.14	4.23037	434.965	-43.0012	-0.235818	0.006	-0.406596	0	-5.36822	0	6.61471	333.265	40.1003	-0.236804	0.006	-0.758358	0	4.73677	0	0	0	0	0	0	0	0	0	0
7.15	4.1732	434.458	-44.9506	-0.236533	0.006	-0.406486	0	-5.13592	0	6.30459	335.07	42.2545	-0.237473	0.006	-0.758618	0	4.55711	0	0	0	0	0	0	0	0	0	0
7.16	4.00495	433.471	-46.7014	-0.23724	0.006	-0.406395	0	-4.90794	0	5.94468	336.104	44.1935	-0.238129	0.006	-0.758877	0	4.38185	0	0	0	0	0	0	0	0	0	0
7.17	3.74051	432.018	-48.234	-0.237945	0.006	-0.406324	0	-4.68688	0	5.54319	336.352	45.9096	-0.238774	0.006	-0.759139	0	4.21249	0	0	0	0	0	0	0	0	0	0
7.18	3.39871	430.114	-49.5391	-0.23865	0.006	-0.406272	0	-4.47485	0	5.11002	335.806	47.402	-0.23941	0.006	-0.759406	0	4.04993	0	0	0	0	0	0	0	0	0	0
7.19	3.00117	427.767	-50.6155	-0.239356	0.006	-0.406238	0	-4.27335	0	4.65446	334.467	48.6742	-0.240035	0.006	-0.759682	0	3.89445	0	0	0	0	0	0	0	0	0	0
